<svg xmlns="http://www.w3.org/2000/svg" width="1400" height="560" viewBox="0 0 1400 560" role="img" aria-labelledby="title desc">
  <title id="title">Codex Factory Kit Cover</title>
  <desc id="desc">Minimal and product-style cover for Codex Factory Kit.</desc>
  <defs>
    <linearGradient id="bg" x1="0" y1="0" x2="1" y2="1">
      <stop offset="0%" stop-color="#0b1021"/>
      <stop offset="100%" stop-color="#12203f"/>
    </linearGradient>
    <linearGradient id="accent" x1="0" y1="0" x2="1" y2="1">
      <stop offset="0%" stop-color="#60a5fa"/>
      <stop offset="100%" stop-color="#22d3ee"/>
    </linearGradient>
    <linearGradient id="panel" x1="0" y1="0" x2="0" y2="1">
      <stop offset="0%" stop-color="#111827"/>
      <stop offset="100%" stop-color="#0f172a"/>
    </linearGradient>
    <filter id="shadow" x="-20%" y="-20%" width="140%" height="160%">
      <feDropShadow dx="0" dy="18" stdDeviation="18" flood-color="#000000" flood-opacity="0.35"/>
    </filter>
  </defs>

  <rect width="1400" height="560" fill="url(#bg)"/>
  <g opacity="0.6">
    <circle cx="110" cy="95" r="90" fill="url(#accent)" />
    <circle cx="1290" cy="470" r="95" fill="url(#accent)" />
  </g>

  <g fill="none" stroke="none">
    <rect x="120" y="74" width="1160" height="412" rx="24" fill="url(#panel)" opacity="0.95" filter="url(#shadow)" />
    <rect x="154" y="110" width="1088" height="86" rx="14" fill="url(#accent)" />
    <text x="700" y="166" text-anchor="middle" font-family="Inter, Arial, Helvetica, sans-serif" font-size="40" fill="#0b1021" font-weight="700">Codex Factory Kit</text>
    <text x="700" y="240" text-anchor="middle" font-family="Inter, Arial, Helvetica, sans-serif" font-size="24" fill="#e2e8f0" letter-spacing="0.5">Product-Oriented Workflow for Codex Sessions</text>
    <text x="700" y="282" text-anchor="middle" font-family="Inter, Arial, Helvetica, sans-serif" font-size="19" fill="#cbd5e1">Context + Planning + Review + QA + Handoff in one flow</text>
  </g>

  <g font-family="Inter, Arial, Helvetica, sans-serif" fill="#94a3b8" text-anchor="middle" font-size="16">
    <text x="410" y="360">quickstart.sh</text>
    <text x="700" y="360">factory-router</text>
    <text x="990" y="360">PLAN / TESTPLAN / REVIEW</text>
    <text x="700" y="430" font-size="14" fill="#64748b">One command to bootstrap. Clear checkpoints. Safer output.</text>
  </g>

  <g fill="none" stroke="#334155" stroke-width="2">
    <path d="M410 345 L620 345" />
    <path d="M780 345 L900 345" />
    <path d="M1040 345 L1170 345" />
  </g>
  <g fill="none" stroke="#22d3ee" stroke-width="3">
    <path d="M700 345 L700 390" />
    <path d="M410 370 L700 390" />
    <path d="M700 390 L990 370" />
  </g>
</svg>
