<svg xmlns="http://www.w3.org/2000/svg" width="1400" height="560" viewBox="0 0 1400 560" role="img" aria-labelledby="title desc">
  <title id="title">Codex Factory Kit Cover</title>
  <desc id="desc">Minimal and product-style cover for Codex Factory Kit.</desc>
  <defs>
    <linearGradient id="bg" x1="0" y1="0" x2="1" y2="1">
      <stop offset="0%" stop-color="#0b1021"/>
      <stop offset="100%" stop-color="#12203f"/>
    </linearGradient>
    <linearGradient id="accent" x1="0" y1="0" x2="1" y2="1">
      <stop offset="0%" stop-color="#60a5fa"/>
      <stop offset="100%" stop-color="#22d3ee"/>
    </linearGradient>
    <linearGradient id="panel" x1="0" y1="0" x2="0" y2="1">
      <stop offset="0%" stop-color="#111827"/>
      <stop offset="100%" stop-color="#0f172a"/>
    </linearGradient>
    <pattern id="grain" width="4" height="4" patternUnits="userSpaceOnUse" patternTransform="rotate(45)">
      <rect x="0" y="0" width="1" height="1" fill="#1f2d50" opacity="0.25" />
    </pattern>
    <filter id="soft" x="-20%" y="-20%" width="140%" height="160%">
      <feGaussianBlur stdDeviation="28" />
    </filter>
    <filter id="shadow" x="-20%" y="-20%" width="140%" height="160%">
      <feDropShadow dx="0" dy="18" stdDeviation="18" flood-color="#000000" flood-opacity="0.35"/>
    </filter>
  </defs>

  <rect width="1400" height="560" fill="url(#bg)"/>
  <rect x="0" y="0" width="1400" height="560" fill="url(#grain)" opacity="0.22"/>
  <g opacity="0.6">
    <circle cx="110" cy="95" r="90" fill="url(#accent)" />
    <circle cx="1290" cy="470" r="95" fill="url(#accent)" />
  </g>
  <g fill="none" stroke="#1d2c53" stroke-width="2">
    <line x1="120" y1="520" x2="1280" y2="520" />
    <line x1="120" y1="520" x2="120" y2="40" />
  </g>

  <g fill="none" stroke="none">
    <rect x="120" y="74" width="1160" height="412" rx="24" fill="url(#panel)" opacity="0.98" filter="url(#shadow)" />
    <rect x="120" y="74" width="1160" height="412" rx="24" fill="none" stroke="#27314d" stroke-width="2" opacity="0.65" />
    <rect x="154" y="110" width="1088" height="86" rx="14" fill="url(#accent)" />
    <text x="700" y="166" text-anchor="middle" font-family="'Inter', 'Segoe UI', 'SF Pro Text', 'Helvetica Neue', Arial, sans-serif" font-size="42" fill="#0b1021" font-weight="700">Codex Factory Kit</text>
    <text x="700" y="240" text-anchor="middle" font-family="'Inter', 'Segoe UI', 'SF Pro Text', 'Helvetica Neue', Arial, sans-serif" font-size="26" fill="#e2e8f0" letter-spacing="0.5">Product-Oriented Workflow for Codex Sessions</text>
    <text x="700" y="282" text-anchor="middle" font-family="'Inter', 'Segoe UI', 'SF Pro Text', 'Helvetica Neue', Arial, sans-serif" font-size="21" fill="#cbd5e1">Context + Planning + Review + QA + Handoff in one flow</text>
  </g>

  <g font-family="'Inter', 'Segoe UI', 'SF Pro Text', 'Helvetica Neue', Arial, sans-serif" fill="#cbd5e1" text-anchor="middle" font-size="20" font-weight="600">
    <rect x="300" y="326" width="220" height="58" rx="14" fill="#0d1530" opacity="0.82" />
    <rect x="590" y="326" width="220" height="58" rx="14" fill="#0d1530" opacity="0.82" />
    <rect x="880" y="326" width="220" height="58" rx="14" fill="#0d1530" opacity="0.82" />
    <text x="410" y="365">install.sh</text>
    <text x="700" y="365">factory-router</text>
    <text x="990" y="365">PLAN / TESTPLAN / REVIEW</text>
    <text x="700" y="432" font-size="17" fill="#64748b" letter-spacing="0.2" font-weight="400">One command to bootstrap. Clear checkpoints. Safer output.</text>
  </g>

  <g fill="none" stroke="#334155" stroke-width="2">
    <path d="M410 355 L620 355" />
    <path d="M780 355 L900 355" />
    <path d="M1040 355 L1170 355" />
  </g>
  <g fill="none" stroke="#22d3ee" stroke-width="3">
    <path d="M700 355 L700 410" />
    <path d="M410 385 L700 410" />
    <path d="M700 410 L990 385" />
  </g>
  <g fill="#93c5fd" fill-opacity="0.24">
    <circle cx="390" cy="355" r="8" />
    <circle cx="700" cy="355" r="8" />
    <circle cx="1010" cy="355" r="8" />
  </g>
</svg>
